FILE "Sega Mega-CD Soundtracks (1993)(Sega)(FR)[CD-Audio].img" BINARY
  TRACK 01 AUDIO
    INDEX 00 00:00:00
    INDEX 01 00:00:32
  TRACK 02 AUDIO
    INDEX 00 07:40:55
    INDEX 01 07:41:02
  TRACK 03 AUDIO
    INDEX 00 12:15:70
    INDEX 01 12:16:72
  TRACK 04 AUDIO
    INDEX 00 16:25:55
    INDEX 01 16:26:47
